# xmcd
#
# Track frame offsets: 
#        183
#        14145
#        25308
#        36823
#        48120
#        58735
#        73033
#        83398
#        94383
#        105773
#        116765
#        127995
#        137578
#        146153
#        155910
#        164185
#        174408
#        196603
#        209388
#        220858
#
# Disc length: 3085 seconds
#
# Revision: 1
# Processed by: cddbd v1.5.2PL0 Copyright (c) Steve Scherf et al.
# Submitted via: ExactAudioCopy v0.99pb4
#
DISCID=1f0c0b14
DTITLE=Various Artist - 20 Bluegrass Originals
DYEAR=1987
DGENRE=Bluegrass
TTITLE0=Free Born Man - Jimmy Martin
TTITLE1=You Can Have Her - J.D. Crowe
TTITLE2=Miss You Mississippi - II Generation
TTITLE3=Drink That Mash - Lester Flatt
TTITLE4=Speedin' - Reno and Smiley
TTITLE5=Two Little Boys - Country Gentlemen
TTITLE6=Skipping In The Mississippi Dew - New Grass Revival
TTITLE7=Run Pete Run - Jimmy Martin
TTITLE8=Sweet Miss Sarah Jane - Reno and Harris
TTITLE9=Ten Degree And Getting Colder - J.D. Crowe
TTITLE10=Salty Dog - Flatt and Scruggs
TTITLE11=Ain't Gonna Work Tomorrow - Country Gentlemen
TTITLE12=Hills Of Home - Ralph Stanley
TTITLE13=Great Balls Of Fire - New Grass Revival
TTITLE14=Lorena Go Home - Charlie Moore
TTITLE15=Pig In A Pen - Stanley Brothers
TTITLE16=New Joe Clark - II Generation
TTITLE17=Brand New Broken Heart - Larry Sparks
TTITLE18=Long White Line - Moore and Napier
TTITLE19=Orange Blossom Special - Benny Martin
EXTD=
EXTT0=
EXTT1=
EXTT2=
EXTT3=
EXTT4=
EXTT5=
EXTT6=
EXTT7=
EXTT8=
EXTT9=
EXTT10=
EXTT11=
EXTT12=
EXTT13=
EXTT14=
EXTT15=
EXTT16=
EXTT17=
EXTT18=
EXTT19=
PLAYORDER=
